<svg width="978" height="416" viewBox="0 0 978 416" fill="none" xmlns="http://www.w3.org/2000/svg">
<path d="M971.287 323.037L654.404 640.188M971.287 323.037H931.809M971.287 323.037V362.549M970.17 158.933C970.17 158.933 661.067 462.783 467.529 662M970.17 158.933V199.856M970.17 158.933H929.282M633.95 325.496L336.405 623.194M633.95 325.496V363.596M633.95 325.496H595.882M918.17 26.1024L680.83 263.759L605.765 188.623L171.193 623.194M918.17 26.1024V64.9083M918.17 26.1024H879.397M769.788 6C769.788 6 742.418 33.5094 656.522 119.478M769.788 6V44.806M769.788 6L731.014 6M592.494 36.6977L6 623.194M592.494 36.6977V75.5036M592.494 36.6977H553.721M451.508 9.18639L174.288 286.658M451.508 9.18639V47.9924M451.508 9.18639L412.734 9.18639" stroke="white" stroke-opacity="0.5" stroke-width="12" stroke-linecap="round"/>
</svg>
