<svg width="977" height="667" viewBox="0 0 977 667" fill="none" xmlns="http://www.w3.org/2000/svg">
<path d="M970.287 323.037L653.404 640.188M970.287 323.037H930.809M970.287 323.037V362.549M969.17 158.933C969.17 158.933 660.067 462.783 466.529 662M969.17 158.933V199.856M969.17 158.933H928.282M632.95 325.496L335.405 623.194M632.95 325.496V363.596M632.95 325.496H594.882M917.17 26.1024L679.83 263.759L604.765 188.623L170.193 623.194M917.17 26.1024V64.9083M917.17 26.1024H878.397M768.788 6C768.788 6 741.418 33.5094 655.522 119.478M768.788 6V44.806M768.788 6L730.014 6M591.494 36.6977L5 623.194M591.494 36.6977V75.5036M591.494 36.6977H552.721M450.508 9.18639L173.288 286.658M450.508 9.18639V47.9924M450.508 9.18639L411.734 9.18639" stroke="white" stroke-opacity="0.5" stroke-width="12"/>
</svg>
