<svg width="37" height="45" viewBox="0 0 36.6 45" xmlns="http://www.w3.org/2000/svg"><clipPath id="a"><path d="M0 0h36.6v45H0z"/></clipPath><g clip-path="url(#a)"><path d="M18.3 43.6s16.9-11.4 16.9-26c0-4.3-1.8-8.4-4.9-11.5-3.2-3-7.5-4.8-11.9-4.8-4.5 0-8.8 1.7-11.9 4.8-3.2 3-4.9 7.2-4.9 11.5-.2 14.6 16.7 26 16.7 26z" fill="#614137" stroke="#fff" stroke-linecap="round" stroke-linejoin="round" stroke-width="4"/><path d="M18.3 23.2c3.1 0 5.6-2.5 5.6-5.6S21.4 12 18.3 12s-5.6 2.5-5.6 5.6 2.5 5.6 5.6 5.6z" fill="#fff"/></g></svg>