<svg xmlns="http://www.w3.org/2000/svg" version="1.1" xmlns:xlink="http://www.w3.org/1999/xlink" xmlns:svgjs="http://svgjs.dev/svgjs" width="1000" height="1000"><g clip-path="url(#SvgjsClipPath1096)"><rect width="1000" height="1000" fill="#ffffff"></rect><g transform="matrix(0.5207451863616835,0,0,0.5207451863616835,100,255.99442802650594)"><svg xmlns="http://www.w3.org/2000/svg" version="1.1" xmlns:xlink="http://www.w3.org/1999/xlink" xmlns:svgjs="http://svgjs.dev/svgjs" width="1536.26" height="937.14"><svg id="a" xmlns="http://www.w3.org/2000/svg" viewBox="0 0 1536.26 937.14"><path d="m871.53,810.36l-54.73,126.77h-114.7l54.74-126.77h-6.11c-77.06,0-138.9-27.05-183.92-70.87h588.48c-64.26,44.63-137.98,70.87-212.58,70.87h-71.19Zm-334.18-105.15c-12.76-17.74-23.44-37.2-32.01-57.94h748.5c-16.88,20.95-35.35,40.36-55.1,57.94h-661.39Zm-43.91-92.21c-5.32-18.64-9.07-38.04-11.24-57.94h830.32c-9.85,20.14-21.05,39.5-33.43,57.94H493.45Zm-13.38-92.22c-.33-19.07.76-38.45,3.32-57.94h869.05l-20.87,47.8c-1.25,3.4-2.57,6.78-3.89,10.14H480.07Zm9.31-92.21c4-18.39,9.28-36.75,15.94-54.9l1.1-3.04h886.3l-25.3,57.93H489.37Zm29.6-92.22l21.22-57.94h892.81l-25.31,57.94h-888.72Zm34.63-92.21c8.85-20.7,18.64-40,29.36-57.93h890.3l-25.3,57.93h-894.37Zm52.21-92.22c16.17-21.74,34.04-41.03,53.66-57.94h854.07l-25.3,57.94h-882.43Zm101.06-92.21C774.23,19.21,857.54,0,957.25,0h546.49c25.6.77,36.09,15.58,31.45,44.44l-6.67,15.26h-821.64Z" fill="#614137" fill-rule="evenodd"></path><path d="m391.56,810.36l-54.73,126.77h-114.69l54.74-126.77h-6.11c-225.33,0-320.64-231.32-245.44-436.69l37.11-101.35C131.3,84.26,268.32,0,477.27,0h546.49c25.6.77,36.09,15.58,31.44,44.44l-203.62,466.2c-63.27,171.5-223.98,299.72-388.84,299.72h-71.19Z" fill="#614137" fill-rule="evenodd"></path></svg></svg></g></g><defs><clipPath id="SvgjsClipPath1096"><rect width="1000" height="1000" x="0" y="0" rx="450" ry="450"></rect></clipPath></defs></svg>